<?xml version="1.0" standalone="no"?>
<!DOCTYPE svg PUBLIC "-//W3C//DTD SVG 20010904//EN"
 "http://www.w3.org/TR/2001/REC-SVG-20010904/DTD/svg10.dtd">
<svg version="1.0" xmlns="http://www.w3.org/2000/svg"
 width="70.000000pt" height="51.473333pt" viewBox="0 0 70.000000 51.473333"
 preserveAspectRatio="xMidYMid meet">
<metadata>
Created by potrace 1.16, written by Peter Selinger 2001-2019
</metadata>
<g transform="translate(0.000000,51.473333) scale(0.002333,-0.002333)"
fill="#000000" stroke="none">
<path d="M14680 18923 c-600 -32 -1157 -115 -1655 -248 -447 -119 -748 -224
-1210 -422 -129 -56 -528 -257 -670 -339 -82 -48 -175 -100 -205 -117 -82 -46
-490 -321 -604 -407 -55 -41 -129 -97 -165 -124 -36 -27 -109 -86 -161 -130
-52 -45 -108 -92 -125 -105 -90 -68 -532 -498 -711 -691 -112 -120 -346 -404
-467 -565 -114 -151 -415 -596 -447 -660 -8 -17 -29 -52 -46 -80 -84 -134
-262 -474 -366 -699 -90 -194 -212 -499 -293 -731 l-53 -150 -3211 -3 -3211
-2 0 -245 0 -245 13920 0 13920 0 -2 243 -3 242 -3181 3 c-3019 2 -3182 3
-3189 20 -4 9 -31 87 -60 172 -263 768 -702 1577 -1204 2220 -731 938 -1639
1690 -2666 2210 -280 142 -372 184 -647 294 -278 112 -393 152 -656 230 -551
164 -1020 254 -1582 305 -288 27 -793 38 -1050 24z m787 -597 c26 -3 93 -7
148 -11 412 -27 974 -130 1445 -265 749 -216 1540 -598 2173 -1048 92 -66 106
-53 -133 -117 -419 -113 -1254 -295 -1555 -340 -60 -9 -191 -29 -290 -45 -583
-95 -1260 -163 -1905 -191 -343 -15 -1233 -6 -1540 15 -536 38 -1048 98 -1465
172 -77 13 -194 34 -260 45 -229 40 -612 130 -932 220 -137 38 -454 137 -461
144 -6 5 235 172 413 287 892 572 1920 946 2987 1087 203 27 357 40 563 47 94
4 172 8 174 10 5 4 575 -5 638 -10z m-5399 -2166 l162 -55 0 -187 0 -187 -65
30 c-148 67 -343 61 -517 -15 -17 -8 -18 1 -18 98 l0 106 128 135 c70 74 132
134 137 133 6 -2 83 -28 173 -58z m10002 -191 c0 -216 -1 -231 -17 -223 -175
76 -376 82 -520 14 l-63 -29 0 174 0 174 58 11 c31 6 156 33 277 60 121 26
230 48 243 49 l22 1 0 -231z m-858 -480 c14 -43 14 -52 -4 -120 -17 -68 -19
-107 -16 -459 l3 -385 32 -82 c17 -46 42 -97 54 -114 l22 -31 -21 -43 c-12
-24 -28 -70 -36 -102 -12 -48 -86 -636 -86 -687 0 -14 -86 -16 -893 -16 l-894
0 -13 28 c-8 15 -23 39 -33 54 -16 25 -17 30 -2 57 23 45 45 149 45 216 0 101
-60 687 -76 745 -22 77 -76 176 -129 237 l-45 51 15 64 c8 35 15 91 15 125 0
54 -43 284 -110 582 -11 51 -19 95 -18 96 2 1 68 10 148 19 641 74 1283 168
1860 274 l155 28 6 -245 c4 -180 10 -258 21 -292z m-8422 463 c473 -120 1106
-232 1665 -293 110 -12 201 -23 202 -23 2 -1 -22 -112 -89 -421 -25 -116 -27
-253 -6 -332 l15 -52 -39 -38 c-22 -21 -54 -63 -73 -93 -63 -104 -75 -158
-111 -525 -38 -374 -38 -437 1 -549 l24 -68 -31 -54 -30 -54 -888 0 -887 0 -6
53 c-4 28 -18 153 -32 277 -33 299 -34 308 -47 360 -6 25 -23 70 -38 101 l-27
55 25 35 c37 52 60 112 77 198 23 112 17 791 -7 863 -14 42 -14 51 0 100 11
39 17 116 20 292 l4 238 21 -5 c12 -2 128 -32 257 -65z m9804 -197 c544 -639
954 -1332 1265 -2138 34 -87 61 -160 61 -162 0 -3 -358 -5 -795 -5 l-795 0 4
23 c18 82 57 502 53 562 -7 91 -39 191 -81 253 l-33 50 27 57 c51 105 55 148
55 555 0 329 -2 382 -18 432 -16 53 -16 60 -1 115 13 43 18 117 21 287 l5 229
52 -54 c29 -30 110 -121 180 -204z m-3844 -142 c6 -38 33 -172 61 -299 27
-130 49 -258 49 -291 l0 -60 -62 10 c-122 20 -275 -18 -393 -98 l-64 -43 -30
47 c-27 42 -66 184 -87 315 -3 21 -21 111 -40 199 -19 87 -34 176 -34 196 l0
38 168 12 c136 11 245 21 408 40 7 0 17 -27 24 -66z m-7400 -42 c0 -15 7 -51
15 -79 14 -48 14 -56 -2 -109 -16 -51 -18 -102 -18 -448 0 -422 3 -449 59
-551 l23 -42 -33 -52 c-88 -139 -98 -247 -56 -597 l28 -243 -617 0 -617 0 38
103 c90 246 238 587 343 787 205 393 429 750 680 1085 147 196 157 205 157
146z m3840 23 c74 -4 142 -8 150 -10 8 -1 51 -3 95 -3 44 -1 87 -5 95 -10 16
-11 10 -43 -72 -436 -39 -182 -73 -280 -102 -291 -7 -3 -39 13 -72 34 -116 76
-229 106 -375 100 l-74 -3 -3 42 c-3 34 94 528 113 582 4 10 18 12 58 8 28 -4
113 -9 187 -13z m2674 -46 c3 -29 37 -201 76 -383 79 -369 99 -427 190 -524
l50 -54 -15 -57 c-21 -81 -19 -143 15 -495 34 -350 39 -381 87 -485 18 -41 31
-80 29 -87 -4 -10 -125 -13 -616 -13 l-610 0 0 1060 0 1060 93 1 c50 1 108 2
127 4 19 1 121 5 225 10 105 4 192 9 194 11 2 2 37 4 76 4 l72 0 7 -52z
m-1364 -1043 l0 -1055 -549 0 c-617 0 -582 -5 -536 74 52 89 64 147 95 471 33
342 37 479 17 546 l-14 45 49 54 c65 73 102 139 127 230 19 68 106 474 134
627 13 75 -24 69 380 65 l297 -3 0 -1054z m-4457 996 c23 -12 53 -30 67 -41
25 -19 25 -19 5 -35 -103 -83 -252 -89 -355 -14 l-43 31 24 19 c90 69 210 85
302 40z m9850 -2 c23 -12 52 -30 65 -40 l23 -18 -42 -30 c-99 -72 -229 -71
-336 2 -18 12 -33 25 -33 29 0 13 65 53 115 71 62 22 147 16 208 -14z m-10144
-401 c123 -42 307 -31 420 27 28 14 53 25 56 25 3 0 5 -123 5 -272 -1 -237 -3
-280 -19 -323 -11 -31 -23 -49 -32 -48 -8 1 -48 14 -89 29 -64 23 -91 27 -190
28 -83 0 -130 -4 -169 -17 -30 -9 -60 -17 -67 -17 -26 0 -34 78 -34 348 l0
273 32 -17 c17 -9 56 -25 87 -36z m9745 43 c7 -11 110 -47 174 -60 110 -23
261 -2 361 49 l41 20 0 -272 c0 -270 -8 -348 -34 -348 -7 0 -37 8 -67 17 -39
13 -86 17 -169 17 -99 -1 -126 -5 -190 -28 -106 -38 -103 -38 -122 19 -14 42
-17 96 -18 323 0 249 4 296 24 263z m-6720 -575 c103 -78 241 -119 386 -114
l95 3 -2 -105 c-3 -123 -41 -549 -54 -601 l-9 -35 -67 33 c-134 66 -314 72
-490 18 -22 -7 -23 -5 -23 42 0 68 47 565 61 638 10 53 52 145 67 145 3 0 19
-11 36 -24z m4204 0 c35 -46 51 -130 81 -447 25 -270 29 -359 16 -359 -1 0
-22 7 -46 16 -57 21 -255 30 -334 15 -33 -6 -90 -26 -127 -45 l-67 -35 -5 27
c-7 39 -15 106 -21 192 -3 41 -14 165 -25 275 -10 110 -16 211 -14 225 5 25 6
25 122 25 143 0 229 24 324 89 34 24 66 44 70 45 4 0 15 -10 26 -23z m-7238
-472 c119 -42 287 -38 411 11 13 5 20 -2 28 -27 13 -39 71 -518 71 -585 l0
-43 -298 0 -298 0 -31 275 c-30 257 -31 280 -17 332 18 69 22 76 43 69 9 -3
50 -17 91 -32z m10344 -4 c23 -58 22 -99 -10 -383 l-28 -257 -301 0 -301 0 12
103 c7 56 15 134 19 172 28 311 43 392 74 380 138 -54 305 -54 436 -1 33 13
65 25 71 25 7 1 19 -17 28 -39z"/>
<path d="M2230 12629 c-241 -19 -470 -70 -606 -136 -88 -42 -193 -124 -262
-206 -86 -100 -156 -266 -187 -442 -32 -185 -36 -315 -32 -980 4 -692 5 -721
52 -899 88 -334 319 -544 695 -632 82 -19 266 -40 390 -45 175 -7 2073 -4
2213 3 702 38 1011 309 1076 947 14 136 14 1305 1 1442 -22 213 -83 418 -160
538 -118 182 -291 293 -555 357 -234 56 -258 57 -1430 59 -594 2 -1132 -1
-1195 -6z m1800 -835 c202 -27 339 -85 410 -176 48 -60 60 -86 86 -188 17 -68
19 -114 19 -475 0 -433 -2 -457 -59 -580 -59 -130 -177 -200 -408 -242 -78
-14 -182 -17 -638 -21 -589 -4 -726 2 -884 43 -220 55 -316 150 -364 357 -26
111 -25 765 1 888 55 257 177 353 502 395 146 18 1191 18 1335 -1z"/>
<path d="M25905 12633 c-287 -24 -555 -86 -712 -164 -236 -117 -386 -325 -448
-622 -41 -194 -45 -278 -45 -919 0 -648 5 -728 49 -908 85 -341 345 -589 720
-685 179 -46 227 -48 1221 -52 864 -4 1202 2 1340 22 395 60 597 167 739 390
107 168 161 452 145 763 l-7 132 -513 0 -514 0 0 -37 c0 -69 -21 -167 -47
-226 -48 -107 -129 -156 -321 -194 -102 -21 -1081 -31 -1237 -13 -329 37 -458
126 -522 360 -16 57 -18 114 -18 480 0 460 5 507 66 629 52 104 132 155 302
193 87 20 126 21 737 24 699 3 709 2 830 -52 108 -48 167 -138 177 -270 l6
-74 507 0 508 0 7 84 c17 211 -24 505 -93 661 -135 308 -374 434 -901 475
-122 9 -1869 12 -1976 3z"/>
<path d="M6052 10958 l3 -1643 1598 -3 1597 -2 0 405 0 405 -1090 0 -1090 0 0
1240 0 1240 -510 0 -510 0 2 -1642z"/>
<path d="M8360 12595 c0 -6 124 -154 196 -234 22 -25 177 -206 344 -401 167
-195 311 -361 320 -370 8 -8 35 -40 60 -70 24 -30 81 -96 125 -146 44 -50 110
-127 147 -170 36 -43 75 -88 85 -99 10 -11 53 -60 95 -110 42 -49 155 -182
252 -295 l176 -204 2 -591 3 -590 505 0 505 0 5 597 5 597 31 33 c69 74 116
127 181 204 68 81 534 622 816 948 82 94 186 214 230 267 96 113 255 297 336
389 32 36 86 99 121 140 35 41 70 83 78 93 14 16 -15 17 -590 17 l-604 0 -140
-162 c-76 -88 -231 -267 -343 -397 -112 -130 -227 -263 -255 -295 -28 -33 -87
-101 -131 -151 -44 -50 -100 -115 -125 -145 -25 -29 -62 -73 -84 -97 l-38 -42
-77 93 c-42 51 -125 152 -186 225 -60 73 -144 174 -185 225 -42 50 -123 148
-180 217 -58 69 -163 197 -234 283 -71 86 -138 167 -149 179 -11 12 -26 32
-34 45 l-15 22 -624 0 c-343 0 -624 -2 -624 -5z"/>
<path d="M13160 10955 l0 -1645 490 0 490 0 2 1157 3 1157 125 -219 c68 -121
148 -259 177 -307 29 -48 53 -90 53 -93 0 -4 49 -90 109 -193 60 -103 136
-234 169 -292 32 -58 127 -222 209 -365 83 -143 178 -309 213 -370 35 -60 111
-192 169 -292 l106 -183 330 3 329 2 123 210 c68 116 152 260 186 320 35 61
155 268 267 460 112 193 236 406 276 475 146 254 328 567 362 625 19 33 57 98
84 145 l48 85 2 -1160 3 -1160 485 0 485 0 3 1643 2 1642 -737 0 -738 -1 -39
-67 c-21 -37 -96 -166 -166 -288 -70 -121 -139 -238 -152 -260 -14 -21 -36
-59 -50 -84 -73 -129 -151 -264 -188 -326 -24 -37 -70 -118 -105 -179 -34 -60
-101 -177 -150 -260 -49 -82 -105 -179 -125 -215 -50 -91 -204 -349 -206 -347
-1 1 -49 85 -106 187 -58 102 -178 313 -268 470 -90 157 -190 332 -223 390
-76 135 -91 160 -177 310 -40 69 -82 143 -94 165 -12 22 -82 145 -155 273
l-133 232 -744 0 -744 0 0 -1645z"/>
<path d="M18952 10958 l3 -1643 485 -3 c267 -1 495 0 508 3 l22 5 0 405 0 404
1038 4 c1011 3 1039 4 1127 24 342 80 523 250 609 573 61 228 86 533 68 808
-31 456 -127 685 -357 859 -118 89 -234 135 -445 175 -114 22 -122 22 -1588
25 l-1472 4 2 -1643z m2578 809 c133 -26 206 -93 234 -216 33 -144 13 -377
-40 -468 -29 -51 -92 -91 -173 -109 -44 -11 -220 -14 -818 -14 l-763 0 0 410
0 410 748 0 c560 -1 763 -4 812 -13z"/>
<path d="M23190 10955 l0 -1645 508 2 507 3 3 1643 2 1642 -510 0 -510 0 0
-1645z"/>
<path d="M1080 8660 l0 -240 3243 0 3243 0 13 -37 c36 -102 191 -484 246 -608
104 -229 311 -630 375 -725 10 -14 32 -52 50 -85 56 -103 317 -493 439 -655
533 -712 1191 -1339 1921 -1832 702 -474 1473 -830 2302 -1062 134 -38 426
-110 493 -122 22 -3 49 -8 60 -10 313 -60 685 -111 1000 -136 211 -17 910 -17
1120 0 919 74 1680 255 2495 594 447 186 947 453 1320 707 69 46 150 101 180
121 104 70 415 313 565 441 499 425 980 951 1340 1465 364 519 641 1032 884
1634 37 91 78 198 91 238 l25 72 3217 0 3218 0 0 240 0 240 -13920 0 -13920 0
0 -240z m10697 -230 c173 -20 231 -85 241 -272 l5 -98 -132 0 -131 0 0 30 c0
43 -19 77 -50 90 -19 8 -97 10 -243 8 -256 -4 -257 -4 -257 -100 0 -63 18 -93
62 -103 13 -2 149 -9 303 -14 179 -6 294 -14 318 -22 61 -20 114 -75 139 -144
19 -52 22 -81 23 -210 0 -144 -1 -153 -28 -210 -15 -33 -36 -68 -45 -78 -54
-60 -163 -77 -482 -77 -488 0 -554 35 -567 298 l-6 102 137 0 136 0 0 -39 c0
-28 7 -49 24 -68 l24 -28 246 0 c236 0 246 1 266 21 27 27 37 94 20 135 -23
54 -52 59 -359 70 -199 6 -291 13 -330 25 -103 30 -143 99 -156 267 -8 99 9
236 36 288 43 86 103 118 239 128 140 12 473 12 567 1z m1278 1 c143 -10 191
-24 242 -73 53 -51 76 -118 81 -240 l5 -108 -132 0 -131 0 -6 28 c-10 51 -23
72 -56 92 -31 19 -46 21 -243 18 -313 -4 -310 -1 -310 -313 0 -182 2 -203 20
-234 42 -71 56 -76 258 -79 218 -4 258 1 299 37 25 22 32 37 36 79 l5 52 133
0 134 0 2 -32 c9 -174 -31 -307 -112 -366 -57 -42 -129 -53 -385 -59 -450 -10
-546 18 -622 184 -35 76 -43 149 -43 408 0 301 15 397 71 479 27 40 98 89 154
107 82 26 364 35 600 20z m2029 -11 c114 -35 162 -107 172 -262 l7 -98 -130 0
-130 0 -7 41 c-4 23 -17 51 -31 65 -24 24 -25 24 -227 24 -225 0 -274 -8 -288
-46 -28 -73 2 -148 63 -159 18 -3 156 -9 308 -13 274 -8 276 -8 333 -36 102
-50 136 -136 136 -347 0 -204 -46 -295 -168 -335 -51 -17 -92 -19 -382 -19
-287 0 -334 2 -400 19 -128 33 -170 103 -170 283 l0 93 129 0 128 0 6 -46 c9
-85 36 -93 308 -94 259 0 279 7 279 105 0 107 -21 115 -355 125 -293 10 -322
13 -385 43 -52 25 -77 64 -96 146 -17 69 -18 241 -3 313 31 145 96 195 269
209 142 11 588 3 634 -11z m2599 -4 c108 -25 168 -85 204 -201 16 -53 18 -99
18 -380 0 -303 -1 -324 -22 -391 -29 -92 -84 -156 -152 -179 -74 -24 -203 -35
-431 -35 -222 1 -361 10 -431 31 -61 19 -129 88 -154 159 -17 49 -20 89 -23
375 -3 331 2 399 38 481 42 96 132 144 294 155 163 11 589 2 659 -15z m3732 0
c58 -18 97 -51 124 -104 23 -44 41 -136 41 -204 l0 -48 -129 0 -128 0 -6 42
c-4 29 -14 50 -32 65 -25 22 -33 23 -234 23 -272 0 -291 -7 -291 -105 0 -58
12 -80 50 -93 17 -6 146 -14 288 -17 286 -7 341 -14 398 -51 70 -45 98 -107
114 -247 24 -206 -31 -368 -139 -413 -63 -26 -226 -37 -496 -31 -351 7 -413
24 -460 131 -26 57 -40 166 -30 226 l7 40 129 0 129 0 0 -39 c0 -28 7 -49 24
-68 l24 -28 217 -4 c119 -1 232 0 251 4 56 10 74 35 74 103 0 64 -19 92 -70
106 -14 4 -150 11 -303 16 -234 9 -287 13 -335 30 -108 37 -142 114 -142 318
0 149 12 210 53 265 71 93 149 107 572 102 194 -2 261 -6 300 -19z m-11397
-11 c145 -34 215 -104 242 -240 16 -81 9 -684 -9 -737 -19 -58 -71 -119 -126
-147 l-49 -26 -498 -3 -498 -3 0 586 0 585 438 0 c351 0 449 -3 500 -15z m712
-570 l0 -585 -130 0 -130 0 0 585 0 585 130 0 130 0 0 -585z m5638 556 c127
-57 167 -157 167 -416 0 -278 -47 -387 -184 -425 -20 -5 -162 -10 -323 -10
l-288 0 0 -145 0 -145 -130 0 -130 0 0 586 0 585 418 -3 c415 -3 417 -3 470
-27z m2650 5 c35 -11 69 -32 96 -59 61 -61 80 -134 80 -302 1 -186 -30 -266
-117 -305 l-40 -18 46 -29 c92 -57 107 -98 107 -289 l0 -144 -129 0 -128 0 -5
118 c-6 133 -15 157 -68 172 -19 6 -140 10 -267 10 l-233 0 0 -150 0 -150
-130 0 -130 0 0 586 0 585 433 -3 c381 -3 438 -6 485 -22z m1342 -116 l0 -140
-190 0 -190 0 0 -445 0 -445 -135 0 -135 0 0 445 0 445 -190 0 -190 0 0 140 0
140 515 0 515 0 0 -140z m-8895 -1502 c24 -75 51 -124 158 -293 53 -82 126
-201 164 -264 51 -85 86 -130 139 -180 62 -57 73 -72 79 -111 18 -110 71 -209
177 -332 35 -40 81 -96 103 -123 92 -116 267 -315 302 -344 156 -131 439 -159
626 -65 183 93 298 263 316 464 l6 75 74 -140 c162 -305 209 -364 348 -433
160 -80 331 -90 484 -28 l59 24 0 -644 0 -643 -27 4 c-16 3 -93 9 -172 15
-409 30 -999 151 -1481 305 -1247 397 -2364 1124 -3251 2115 -142 159 -272
317 -389 475 -40 55 -87 117 -103 138 l-29 37 1200 0 1200 0 17 -52z m1013 7
c15 -25 44 -71 64 -103 l37 -57 -76 -12 c-178 -27 -326 -123 -423 -272 -15
-23 -18 -19 -150 194 -74 120 -146 235 -159 256 l-23 39 351 0 352 0 27 -45z
m686 -228 c98 -270 133 -346 185 -400 22 -24 26 -37 26 -93 0 -35 0 -64 -1
-64 -1 0 -88 103 -193 229 -153 184 -239 276 -268 286 -1 0 -8 32 -16 71 -15
69 -44 139 -87 208 l-22 36 139 0 138 0 99 -273z m846 268 c0 -2 15 -46 34
-97 l34 -94 -92 4 c-112 5 -181 -8 -274 -53 -80 -38 -177 -107 -187 -133 -9
-23 -14 -12 -58 113 -19 55 -49 137 -66 183 l-30 82 319 0 c176 0 320 -2 320
-5z m490 -267 l0 -273 -35 64 c-19 36 -46 76 -59 90 -21 23 -24 38 -28 121 -4
71 -13 117 -36 183 l-31 87 95 0 94 0 0 -272z m880 269 c0 -1 -14 -43 -31 -92
-24 -68 -32 -110 -34 -177 -3 -75 -7 -92 -28 -120 -29 -38 -76 -119 -155 -268
-30 -58 -57 -107 -59 -109 -1 -2 -3 170 -3 382 l0 387 155 0 c85 0 155 -1 155
-3z m940 0 c0 -12 -128 -365 -136 -376 -2 -2 -23 14 -47 35 -59 51 -139 99
-213 126 -48 18 -81 22 -181 22 -68 1 -123 3 -123 6 0 3 13 39 28 80 16 41 32
83 35 93 6 16 30 17 322 17 173 0 315 -1 315 -3z m574 -24 c-41 -61 -73 -137
-89 -207 -15 -65 -21 -77 -59 -109 -24 -20 -128 -138 -232 -263 l-189 -227 -3
61 c-3 58 -1 65 36 114 50 67 78 122 113 223 24 70 118 329 148 408 l11 27
141 0 141 0 -18 -27z m1038 -5 c-11 -18 -60 -98 -110 -178 -50 -80 -113 -180
-140 -223 l-48 -78 -28 41 c-92 140 -254 237 -423 256 l-62 6 50 80 c27 44 49
82 49 86 0 3 7 14 17 24 15 17 40 18 366 18 l349 0 -20 -32z m3062 20 c-15
-25 -229 -305 -305 -398 -204 -254 -572 -638 -809 -846 -573 -503 -1138 -872
-1828 -1193 -299 -139 -750 -306 -1032 -381 -649 -172 -1078 -242 -1625 -265
-77 -3 -182 -8 -232 -11 l-93 -5 0 695 0 695 55 -38 c76 -53 166 -88 266 -102
212 -29 438 71 552 244 19 29 78 133 131 232 l96 180 0 -65 c1 -247 188 -478
436 -536 94 -22 245 -15 336 16 139 47 188 91 446 404 59 71 131 157 160 190
63 73 128 198 144 280 11 55 17 65 88 135 51 52 96 110 139 181 34 58 105 173
157 255 109 172 147 243 163 303 l12 42 1375 0 c1098 0 1374 -3 1368 -12z
m-6976 -473 c13 -13 -66 -71 -119 -88 -55 -18 -169 -23 -169 -8 0 18 77 70
135 90 58 21 136 24 153 6z m1846 -20 c28 -13 65 -38 81 -55 l29 -30 -67 0
c-81 0 -161 28 -208 72 -30 29 -31 32 -13 40 31 13 122 -1 178 -27z m-3285
-12 c-60 -80 -134 -129 -214 -140 -60 -8 -58 5 8 71 56 56 114 84 181 85 35 1
37 -1 25 -16z m4647 0 c32 -11 66 -34 101 -69 66 -66 68 -79 8 -71 -80 11
-154 60 -214 140 -12 15 -10 17 21 17 19 0 57 -8 84 -17z m-4293 -235 c47 -57
127 -152 178 -213 113 -135 139 -186 139 -276 0 -205 -211 -352 -401 -280 -53
20 -108 64 -154 121 -11 14 -98 119 -194 235 l-174 209 94 19 c130 25 224 73
310 158 37 37 74 81 83 98 9 17 20 31 25 31 4 0 46 -46 94 -102z m3960 57 c42
-66 142 -151 224 -191 44 -21 108 -42 164 -52 l92 -17 -208 -250 c-114 -138
-225 -262 -245 -278 -147 -107 -356 -55 -437 111 -36 74 -39 182 -7 252 19 42
368 470 383 470 3 0 19 -20 34 -45z m-2460 -333 l67 -123 0 -134 0 -133 -33
-43 c-79 -105 -203 -143 -335 -104 -82 25 -139 87 -218 240 -37 72 -86 164
-109 205 -39 69 -125 236 -125 242 0 2 51 3 112 3 84 0 127 5 168 19 93 31
184 84 235 136 l49 50 61 -118 c34 -64 91 -172 128 -240z m1074 298 c108 -99
275 -157 426 -147 45 3 77 1 77 -4 0 -13 -28 -68 -105 -209 -35 -63 -93 -171
-128 -240 -97 -186 -160 -238 -297 -247 -117 -9 -219 47 -275 148 -22 42 -30
70 -33 130 -4 70 -2 82 29 150 38 81 242 468 248 469 2 0 28 -22 58 -50z"/>
<path d="M17090 8144 c-121 -43 -125 -52 -125 -314 0 -196 1 -207 23 -242 38
-61 82 -70 329 -66 233 3 257 10 298 78 18 32 20 52 20 235 0 183 -2 203 -20
235 -39 66 -73 75 -305 77 -113 1 -212 0 -220 -3z"/>
<path d="M9350 7831 l0 -311 253 0 c312 0 343 7 386 85 13 25 16 62 16 220 0
181 -1 192 -23 231 -45 77 -51 79 -359 82 l-273 3 0 -310z"/>
<path d="M15740 7980 l0 -160 229 0 c215 0 230 1 254 20 67 53 61 257 -9 289
-16 7 -103 11 -249 11 l-225 0 0 -160z"/>
<path d="M18362 7988 l3 -153 253 0 254 0 23 27 c48 56 45 200 -5 250 l-28 28
-251 0 -252 0 3 -152z"/>
</g>
</svg>
